<?xml version="1.0" encoding="UTF-8"?>
<svg width="20px" height="20px" viewBox="0 0 20 20" version="1.1" xmlns="http://www.w3.org/2000/svg" xmlns:xlink="http://www.w3.org/1999/xlink">
    <title>disc</title>
    <g id="Page-1" stroke="none" stroke-width="1" fill="none" fill-rule="evenodd">
        <g id="disc" fill="#B3B3B3" fill-rule="nonzero">
            <path d="M1.07692308,14 C2.03076923,16.3076923 3.93846154,18.2461538 6.33846154,19.2615385 C6.33846154,19.2615385 6.33846154,19.2615385 6.33846154,19.2615385 C7.56923077,19.7538462 8.86153846,20 10.1538462,20 C12.6769231,20 15.2,19.0461538 17.1076923,17.1076923 C22.0307692,12.1846154 20.4307692,3.75384615 13.9692308,1.07692308 C13.9692308,1.07692308 13.9692308,1.07692308 13.9692308,1.07692308 C5.87692308,-2.30769231 -2.30769231,5.84615385 1.07692308,14 C1.07692308,13.9692308 1.07692308,13.9692308 1.07692308,14 Z M12.2153846,9.32307692 C12.5538462,10.1538462 12.3692308,11.1076923 11.7538462,11.7538462 C11.1076923,12.4 10.1538462,12.5846154 9.32307692,12.2153846 C7.87692308,11.6 7.50769231,9.72307692 8.61538462,8.61538462 C9.04615385,8.18461538 9.6,7.96923077 10.1846154,7.96923077 C11.0461538,7.93846154 11.8461538,8.49230769 12.2153846,9.32307692 Z M11.5384615,7.69230769 L14.0307692,1.78461538 C15.9384615,2.64615385 17.6,4.24615385 18.5538462,6.30769231 L12.6461538,8.8 C12.3692308,8.33846154 11.9692308,7.93846154 11.5384615,7.69230769 Z M7.69230769,11.5384615 C7.93846154,11.9692308 8.33846154,12.4 8.8,12.6461538 L6.30769231,18.5538462 C4.27692308,17.6307692 2.67692308,15.9692308 1.78461538,14.0307692 L7.69230769,11.5384615 Z M16.7076923,16.7076923 C14.0615385,19.3538462 10.1846154,20.0615385 6.89230769,18.8 L9.38461538,12.8923077 C10.4,13.2 11.4769231,12.8923077 12.1846154,12.1846154 L12.1846154,12.1846154 C12.9230769,11.4461538 13.2,10.3692308 12.8923077,9.38461538 L18.8,6.89230769 C20.0307692,10.1846154 19.3538462,14.0307692 16.7076923,16.7076923 Z M10.1538462,0.953846154 C11.2615385,0.953846154 12.4,1.16923077 13.4461538,1.56923077 L10.9538462,7.47692308 C9.96923077,7.16923077 8.89230769,7.44615385 8.15384615,8.18461538 C7.41538462,8.92307692 7.13846154,10 7.44615385,10.9846154 L1.53846154,13.4461538 C-0.738461538,7.41538462 3.69230769,0.953846154 10.1538462,0.953846154 Z" id="Shape"></path>
            <path d="M9.29230769,11.0461538 C9.78461538,11.5384615 10.5846154,11.5384615 11.0461538,11.0461538 C11.5384615,10.5538462 11.5384615,9.75384615 11.0461538,9.29230769 C10.5538462,8.8 9.75384615,8.8 9.29230769,9.29230769 C8.8,9.78461538 8.8,10.5538462 9.29230769,11.0461538 Z M9.72307692,9.72307692 C9.96923077,9.47692308 10.3692308,9.47692308 10.6153846,9.72307692 C10.8615385,9.96923077 10.8615385,10.3692308 10.6153846,10.6153846 C10.3692308,10.8615385 9.96923077,10.8615385 9.72307692,10.6153846 C9.47692308,10.3692308 9.47692308,9.96923077 9.72307692,9.72307692 Z" id="Shape"></path>
        </g>
    </g>
</svg>