<?xml version="1.0" encoding="UTF-8"?>
<svg width="14px" height="21px" viewBox="0 0 14 21" version="1.1" xmlns="http://www.w3.org/2000/svg" xmlns:xlink="http://www.w3.org/1999/xlink">
    <title>Shape</title>
    <g id="Page-1" stroke="none" stroke-width="1" fill="none" fill-rule="evenodd">
        <path d="M13.7487179,0.179487179 C13.5692308,0.0717948718 13.3897436,0.0717948718 13.2102564,0.179487179 L4.59487179,5.02564103 C4.41538462,5.13333333 4.30769231,5.31282051 4.30769231,5.49230769 L4.30769231,15.2564103 C3.12307692,14.3589744 1.43589744,14.6102564 0.538461538,15.7948718 C-0.358974359,16.9794872 -0.107692308,18.6666667 1.07692308,19.5641026 C2.26153846,20.4615385 3.94871795,20.2102564 4.84615385,19.025641 C5.20512821,18.5589744 5.38461538,17.9846154 5.38461538,17.4102564 C5.38461538,17.3384615 5.38461538,17.2307692 5.38461538,17.1589744 C5.38461538,17.1230769 5.38461538,17.0871795 5.38461538,17.0512821 L5.38461538,8.57948718 C5.42051282,8.57948718 5.45641026,8.54358974 5.45641026,8.54358974 L12.9230769,4.30769231 L12.9230769,10.2307692 C11.7384615,9.33333333 10.0512821,9.58461538 9.15384615,10.7692308 C8.25641026,11.9538462 8.50769231,13.6410256 9.69230769,14.5384615 C10.8769231,15.4358974 12.5641026,15.1846154 13.4615385,14 C13.8205128,13.5333333 14,12.9589744 14,12.3846154 L14,0.646153846 C14,0.466666667 13.8923077,0.287179487 13.7487179,0.179487179 Z M2.69230769,19.025641 C1.79487179,19.025641 1.07692308,18.3076923 1.07692308,17.4102564 C1.07692308,16.5128205 1.79487179,15.7948718 2.69230769,15.7948718 C3.58974359,15.7948718 4.30769231,16.5128205 4.30769231,17.4102564 C4.30769231,18.3076923 3.58974359,19.025641 2.69230769,19.025641 Z M5.38461538,7.35897436 L5.38461538,5.81538462 L12.9230769,1.57948718 L12.9230769,3.08717949 L5.38461538,7.35897436 Z M11.3076923,14 C10.4102564,14 9.69230769,13.2820513 9.69230769,12.3846154 C9.69230769,11.4871795 10.4102564,10.7692308 11.3076923,10.7692308 C12.2051282,10.7692308 12.9230769,11.4871795 12.9230769,12.3846154 C12.9230769,13.2820513 12.2051282,14 11.3076923,14 Z" id="Shape" fill="#B3B3B3" fill-rule="nonzero"></path>
    </g>
</svg>